<svg width="800" height="800" viewBox="0 0 800 800" fill="none" xmlns="http://www.w3.org/2000/svg">
<path d="M404.328 229.281C459.613 229.281 500.497 250.514 527.895 281.652C555.585 313.121 570.228 355.587 570.727 398.578C571.225 441.566 557.576 483.86 530.28 515.156C503.289 546.104 461.965 567.469 404.328 567.469C346.692 567.469 305.368 546.104 278.376 515.156C251.081 483.86 237.431 441.566 237.93 398.578C238.429 355.587 253.071 313.121 280.761 281.652C308.16 250.514 349.044 229.281 404.328 229.281ZM404.328 602.469C471.455 602.469 522.621 577.187 556.657 538.161C590.391 499.484 606.308 448.481 605.724 398.172C605.14 347.866 588.051 297.035 554.171 258.531C520 219.696 469.477 194.281 404.328 194.281C339.18 194.281 288.656 219.696 254.485 258.531C220.606 297.035 203.516 347.866 202.932 398.172C202.349 448.481 218.266 499.484 251.999 538.161C286.036 577.187 337.202 602.469 404.328 602.469ZM622.099 170.616C622.099 166.099 623.638 163.895 625.075 162.624C626.839 161.064 629.692 159.899 633.099 159.883C636.504 159.867 639.287 161 640.98 162.493C642.339 163.691 643.932 165.888 643.932 170.616C643.932 175.344 642.339 177.541 640.98 178.74C639.287 180.232 636.504 181.365 633.099 181.349C629.692 181.333 626.839 180.168 625.075 178.608C623.638 177.337 622.099 175.133 622.099 170.616ZM678.932 170.616C678.932 156.387 673.421 144.434 664.124 136.238C655.161 128.336 643.735 124.832 632.932 124.883C622.131 124.935 610.776 128.543 601.883 136.411C592.663 144.568 587.099 156.446 587.099 170.616C587.099 184.786 592.663 196.664 601.883 204.821C610.776 212.689 622.131 216.297 632.932 216.349C643.735 216.4 655.161 212.896 664.124 204.994C673.421 196.799 678.932 184.845 678.932 170.616ZM17.5 593.094V266.486C17.5 160.263 45.4974 99.3846 85.2767 64.5542C125.5 29.3353 181.373 17.5 244.114 17.5H593.234C647.632 17.5 694.067 35.4995 727.199 73.9779C760.631 112.805 782.5 174.786 782.5 266.486V592.76C779.253 675.816 716.893 782.5 593.234 782.5H244.114C175.951 782.5 119.171 763.953 79.7871 731.573C40.7661 699.492 17.5001 652.809 17.5 593.094ZM404.328 211.781C645.194 211.781 653.854 584.969 404.328 584.969C154.802 584.969 163.462 211.781 404.328 211.781Z" stroke="#1A172F" stroke-width="35"></path>
</svg>
