<svg width="800" height="800" fill="none" xmlns="http://www.w3.org/2000/svg"><path d="M404.328 229.281c55.285 0 96.169 21.233 123.567 52.371 27.69 31.469 42.333 73.935 42.832 116.926.498 42.988-13.151 85.282-40.447 116.578-26.991 30.948-68.315 52.313-125.952 52.313-57.636 0-98.96-21.365-125.952-52.313-27.295-31.296-40.945-73.59-40.446-116.578.499-42.991 15.141-85.457 42.831-116.926 27.399-31.138 68.283-52.371 123.567-52.371Zm0 373.188c67.127 0 118.293-25.282 152.329-64.308 33.734-38.677 49.651-89.68 49.067-139.989-.584-50.306-17.673-101.137-51.553-139.641-34.171-38.835-84.694-64.25-149.843-64.25-65.148 0-115.672 25.415-149.843 64.25-33.879 38.504-50.969 89.335-51.553 139.641-.583 50.309 15.334 101.312 49.067 139.989 34.037 39.026 85.203 64.308 152.329 64.308Zm217.771-431.853c0-4.517 1.539-6.721 2.976-7.992 1.764-1.56 4.617-2.725 8.024-2.741 3.405-.016 6.188 1.117 7.881 2.61 1.359 1.198 2.952 3.395 2.952 8.123s-1.593 6.925-2.952 8.124c-1.693 1.492-4.476 2.625-7.881 2.609-3.407-.016-6.26-1.181-8.024-2.741-1.437-1.271-2.976-3.475-2.976-7.992Zm56.833 0c0-14.229-5.511-26.182-14.808-34.378-8.963-7.902-20.389-11.406-31.192-11.355-10.801.052-22.156 3.66-31.049 11.528-9.22 8.157-14.784 20.035-14.784 34.205 0 14.17 5.564 26.048 14.784 34.205 8.893 7.868 20.248 11.476 31.049 11.528 10.803.051 22.229-3.453 31.192-11.355 9.297-8.195 14.808-20.149 14.808-34.378ZM17.5 593.094V266.486c0-106.223 27.997-167.101 67.777-201.932C125.5 29.335 181.373 17.5 244.114 17.5h349.12c54.398 0 100.833 18 133.965 56.478 33.432 38.827 55.301 100.808 55.301 192.508V592.76c-3.247 83.056-65.607 189.74-189.266 189.74h-349.12c-68.163 0-124.943-18.547-164.327-50.927C40.767 699.492 17.5 652.809 17.5 593.094Zm386.828-381.313c240.866 0 249.526 373.188 0 373.188s-240.866-373.188 0-373.188Z" stroke="#1A172F" stroke-width="35"/></svg>