<svg width="1051" height="852" fill="none" xmlns="http://www.w3.org/2000/svg"><path d="M850.5 84c53.626-11.904 82.406-22.521 131-50-20.465 54.258-38.857 80.005-90 113.5 48.462-6.569 74.449-12.705 117-31.5-31.541 46.196-52.251 70.413-102 106.5C906.5 735 398 984 8 746c120.5 6 217.5-22 300.5-86.5-81.5-4.5-167-53.5-192.5-144 36.63 4.268 56.298 3.716 89.5-3.5-89.5-22.5-158-91-164-205 28.5 17 66 24.5 95 24.5-68.5-41-130-165-63.5-274 87.5 112 248 209 426 215.5C461 26 734-50 850.5 84Z" stroke="#1A172F" stroke-width="50"/></svg>