<svg width="1051" height="852" viewBox="0 0 1051 852" fill="none" xmlns="http://www.w3.org/2000/svg">
<path d="M850.5 84.0002C904.126 72.0958 932.906 61.4786 981.5 34.0002C961.035 88.2585 942.643 114.005 891.5 147.5C939.962 140.931 965.949 134.795 1008.5 116C976.959 162.196 956.249 186.413 906.5 222.5C906.5 735 398 984 8 746C128.5 752 225.5 724 308.5 659.5C227 655 141.5 606 116 515.5C152.63 519.768 172.298 519.216 205.5 512C116 489.5 47.5 421 41.5 307C70 324 107.5 331.5 136.5 331.5C68 290.5 6.5 166.5 73 57.5002C160.5 169.5 321 266.5 499 273C461 26 734 -49.9992 850.5 84.0002Z" stroke="#1A172F" stroke-width="50"></path>
</svg>
