<svg width="738" height="720" viewBox="0 0 738 720" fill="none" xmlns="http://www.w3.org/2000/svg">
<path d="M343 706.5H406.5L295.5 652H456L295.5 608H456M198 498L119 577M119 322H86M69 322H45.5M30.5 322H0M198 145L119 66M373.5 66V34.5M373.5 15.5V0.5M548 145L628.5 66M624 322H644M656 322H688M707 322H738M548 498L628.5 577M245 299C258 219.5 316 184 373.5 190.5M277.5 568.5H468C477.5 407.5 544.5 441 548 322C548 73.9999 193.5 75.5 198 322C199.871 424.5 272.5 434.5 277.5 568.5Z" stroke="#ECEBF2" stroke-width="27"></path>
</svg>
