<svg width="800" height="760" fill="none" xmlns="http://www.w3.org/2000/svg"><path d="M367 713c-18 34.5-154 61.5-223-29m223 29V466.5m0 246.5c-13.572-28.068-22.218-43.004-60.5-52M144 684c77.611-29.126 93.863-47.463 98-82m-98 82c-7.853-8.746-11.522-15.223-17-29.5-53.756-19.275-105.5-71-77-182.5C2 418-4 328.5 64.5 263.5m0 0c10.145 44.138 17.69 59.373 33 77m-33-77c4.104-59.471 18.058-90.978 88.5-140m0 0c27 64 98 55 112.5 0m-112.5 0C144 52 306-33.5 367 45v121.5m0 0c-17 52.5-77 72-115 45.5m115-45.5v300M153 204c7 54 83 70 105.5 87.5m0 0c43.5 25.5 64.5 82 12 123.5m-12-123.5C153 241.5 144 375 222.5 375m-125 62.5c39.592-24.472 86.471 5.635 88.927 56.5M153 578.5c25.419-30.47 34.614-59.911 33.427-84.5m0 0C222.5 541.5 222.5 539.5 252 546.5m115-80c-22 55.5-89.5 44.5-101.5 0M433 713.277c18 34.5 154 61.5 223-29m-223 29v-246.5m0 246.5c13.571-28.068 22.218-43.004 60.5-52m162.5 23c-77.611-29.126-93.864-47.463-98-82m98 82c7.852-8.746 11.522-15.223 17-29.5 53.755-19.275 105.5-71 77-182.5 48-54 54-143.5-14.5-208.5m0 0c-10.146 44.138-17.689 59.373-33 77m33-77c-4.104-59.471-18.058-90.978-88.5-140m0 0c-27 64-98 55-112.5 0m112.5 0c9-71.5-153-157-214-78.5v121.5m0 0c17 52.5 77 72 115 45.5m-115-45.5v300m214-262.5c-7 54-83 70-105.5 87.5m0 0c-43.5 25.5-64.5 82-12 123.5m12-123.5c105.5-50 114.5 83.5 36 83.5m125 62.5c-39.592-24.472-86.472 5.636-88.927 56.5m33.427 84.5c-25.419-30.47-34.614-59.911-33.427-84.5m0 0c-36.073 47.5-36.073 45.5-65.573 52.5m-115-80c22 55.5 89.5 44.5 101.5 0" stroke="#ECEBF2" stroke-width="27"/></svg>