<svg width="914" height="854" viewBox="0 0 914 854" fill="none" xmlns="http://www.w3.org/2000/svg">
<path d="M317.204 176L432.03 61.1735H595.067L638.14 104.248M897.5 104.248L768.389 234.5L651.667 117.776L638.14 104.248M638.14 104.248L359.144 383.25M87.5 455.25H287.148L359.144 383.25M359.144 383.25L595.067 455.25L359.144 841.5M255 176H133M255 566.5H163.5M193.5 673.5H156.5M133 673.5H96M146 566.5H109M91.5 566.5H0M255 673.5H218M115.5 176H78.5M255 321.5H163.5M146 321.5H109M91.5 321.5H0M715 58.3347C768.416 16.6209 751.698 6.11463 715 58.3347Z" stroke="#ECEBF2" stroke-width="45"></path>
</svg>
