<svg width="447" height="46" viewBox="0 0 447 46" fill="none" xmlns="http://www.w3.org/2000/svg">
<path d="M27.88 14.34C32.44 14.34 36.26 14.98 39.34 16.26C42.46 17.5 44.78 19.2 46.3 21.36C47.86 23.48 48.64 25.86 48.64 28.5C48.64 34.5 46.54 38.86 42.34 41.58C38.18 44.26 32.6 45.6 25.6 45.6C19.72 45.6 14.54 44.62 10.06 42.66C5.62 40.66 2.4 37.32 0.4 32.64C2.6 32.32 5 31.8 7.6 31.08C10.24 30.36 12.62 29.62 14.74 28.86C15.58 30.58 16.76 31.84 18.28 32.64C19.8 33.4 21.84 33.78 24.4 33.78C27.12 33.78 29.36 33.34 31.12 32.46C32.92 31.58 33.82 30.36 33.82 28.8C33.82 27.2 33.04 25.86 31.48 24.78C29.92 23.7 27.54 23.16 24.34 23.16C22.26 23.16 20.36 23.54 18.64 24.3C16.92 25.02 15.68 26.06 14.92 27.42H1.06C2.02 23.3 2.86 18.86 3.58 14.1C4.34 9.34 4.8 5.12 4.96 1.44H47.08V13.08C42.64 12.8 38.44 12.64 34.48 12.6C30.56 12.52 25.06 12.48 17.98 12.48L17.38 15.84C20.42 14.84 23.92 14.34 27.88 14.34ZM77.5473 33.9C81.1473 33.82 83.8073 33.74 85.5273 33.66V45H53.7873V33.66C58.1073 33.82 61.3673 33.9 63.5673 33.9V13.2C62.1273 16.36 59.1873 18.4 54.7473 19.32C54.6273 14.6 54.1873 10.3 53.4273 6.42C56.6273 5.98 58.8473 5.44 60.0873 4.8C61.3673 4.12 62.3473 3.38 63.0273 2.58C63.7473 1.78 64.2273 1.24 64.4673 0.959998V0.839996H77.5473V33.9ZM85.1266 1.38H128.567V9.12C120.727 21 114.667 32.96 110.387 45H94.1866C98.5466 34.16 104.287 23.38 111.407 12.66C100.327 12.66 91.5666 12.86 85.1266 13.26V1.38ZM183.379 21.48C185.139 22.12 186.639 23.02 187.879 24.18C189.119 25.34 190.039 26.62 190.639 28.02C191.239 29.38 191.539 30.66 191.539 31.86C191.539 36.58 189.439 40.06 185.239 42.3C181.079 44.5 175.239 45.6 167.719 45.6C160.159 45.6 154.279 44.5 150.079 42.3C145.879 40.06 143.779 36.58 143.779 31.86C143.779 29.94 144.459 27.98 145.819 25.98C147.219 23.94 149.159 22.44 151.639 21.48C149.439 20.44 147.779 19.3 146.659 18.06C145.579 16.78 145.039 15.08 145.039 12.96C145.039 10.48 145.899 8.28 147.619 6.36C149.339 4.4 151.899 2.88 155.299 1.8C158.739 0.719998 162.879 0.179998 167.719 0.179998C172.519 0.179998 176.619 0.719998 180.019 1.8C183.419 2.88 185.979 4.4 187.699 6.36C189.419 8.28 190.279 10.48 190.279 12.96C190.279 15.12 189.699 16.82 188.539 18.06C187.419 19.3 185.699 20.44 183.379 21.48ZM167.839 17.94C170.159 17.94 172.079 17.54 173.599 16.74C175.159 15.94 175.939 14.88 175.939 13.56C175.939 12.24 175.159 11.2 173.599 10.44C172.039 9.64 170.119 9.24 167.839 9.24C165.519 9.24 163.579 9.64 162.019 10.44C160.459 11.2 159.679 12.24 159.679 13.56C159.679 14.92 160.459 16 162.019 16.8C163.579 17.56 165.519 17.94 167.839 17.94ZM167.839 34.74C170.159 34.74 172.079 34.34 173.599 33.54C175.159 32.74 175.939 31.68 175.939 30.36C175.939 29.04 175.159 28 173.599 27.24C172.039 26.44 170.119 26.04 167.839 26.04C165.519 26.04 163.579 26.44 162.019 27.24C160.459 28 159.679 29.04 159.679 30.36C159.679 31.72 160.459 32.8 162.019 33.6C163.579 34.36 165.519 34.74 167.839 34.74ZM225.858 15.24C229.018 15.24 231.898 15.9 234.498 17.22C237.098 18.5 239.138 20.24 240.618 22.44C242.138 24.64 242.898 27 242.898 29.52C242.898 32.8 241.858 35.66 239.778 38.1C237.698 40.54 234.878 42.4 231.318 43.68C227.758 44.96 223.778 45.6 219.378 45.6C214.898 45.6 210.898 44.72 207.378 42.96C203.898 41.16 201.178 38.68 199.218 35.52C197.298 32.36 196.338 28.76 196.338 24.72C196.338 16.68 198.558 10.7 202.998 6.78C207.478 2.82 213.498 0.839996 221.058 0.839996C230.258 0.839996 237.518 3.16 242.838 7.8C240.438 10.36 238.238 13.18 236.238 16.26C234.638 15.06 232.378 14.1 229.458 13.38C226.578 12.62 223.998 12.24 221.718 12.24C218.238 12.24 215.318 13.12 212.958 14.88C210.598 16.6 209.158 19.08 208.638 22.32C208.598 22.52 208.578 22.8 208.578 23.16C210.498 20.36 213.018 18.34 216.138 17.1C219.298 15.86 222.538 15.24 225.858 15.24ZM219.978 34.2C221.498 34.2 222.918 34 224.237 33.6C225.558 33.16 226.598 32.58 227.358 31.86C228.118 31.1 228.498 30.3 228.498 29.46C228.498 28.14 227.658 27.02 225.978 26.1C224.338 25.14 222.338 24.66 219.978 24.66C217.618 24.66 215.598 25.14 213.918 26.1C212.278 27.02 211.458 28.14 211.458 29.46C211.458 30.3 211.838 31.1 212.598 31.86C213.358 32.58 214.398 33.16 215.718 33.6C217.038 34 218.458 34.2 219.978 34.2ZM277.244 15.24C280.404 15.24 283.284 15.9 285.884 17.22C288.484 18.5 290.524 20.24 292.004 22.44C293.524 24.64 294.284 27 294.284 29.52C294.284 32.8 293.244 35.66 291.164 38.1C289.084 40.54 286.264 42.4 282.704 43.68C279.144 44.96 275.164 45.6 270.764 45.6C266.284 45.6 262.284 44.72 258.764 42.96C255.284 41.16 252.564 38.68 250.604 35.52C248.684 32.36 247.724 28.76 247.724 24.72C247.724 16.68 249.944 10.7 254.384 6.78C258.864 2.82 264.884 0.839996 272.444 0.839996C281.644 0.839996 288.904 3.16 294.224 7.8C291.824 10.36 289.624 13.18 287.624 16.26C286.024 15.06 283.764 14.1 280.844 13.38C277.964 12.62 275.384 12.24 273.104 12.24C269.624 12.24 266.704 13.12 264.344 14.88C261.984 16.6 260.544 19.08 260.024 22.32C259.984 22.52 259.964 22.8 259.964 23.16C261.884 20.36 264.404 18.34 267.524 17.1C270.684 15.86 273.924 15.24 277.244 15.24ZM271.364 34.2C272.884 34.2 274.304 34 275.624 33.6C276.944 33.16 277.984 32.58 278.744 31.86C279.504 31.1 279.884 30.3 279.884 29.46C279.884 28.14 279.044 27.02 277.364 26.1C275.724 25.14 273.724 24.66 271.364 24.66C269.004 24.66 266.984 25.14 265.304 26.1C263.664 27.02 262.844 28.14 262.844 29.46C262.844 30.3 263.224 31.1 263.984 31.86C264.744 32.58 265.784 33.16 267.104 33.6C268.424 34 269.844 34.2 271.364 34.2ZM350.723 21.48C352.483 22.12 353.983 23.02 355.223 24.18C356.463 25.34 357.383 26.62 357.983 28.02C358.583 29.38 358.883 30.66 358.883 31.86C358.883 36.58 356.783 40.06 352.583 42.3C348.423 44.5 342.583 45.6 335.063 45.6C327.503 45.6 321.623 44.5 317.423 42.3C313.223 40.06 311.123 36.58 311.123 31.86C311.123 29.94 311.803 27.98 313.163 25.98C314.563 23.94 316.503 22.44 318.983 21.48C316.783 20.44 315.123 19.3 314.003 18.06C312.923 16.78 312.383 15.08 312.383 12.96C312.383 10.48 313.243 8.28 314.963 6.36C316.683 4.4 319.243 2.88 322.643 1.8C326.083 0.719998 330.223 0.179998 335.063 0.179998C339.863 0.179998 343.963 0.719998 347.363 1.8C350.763 2.88 353.323 4.4 355.043 6.36C356.763 8.28 357.623 10.48 357.623 12.96C357.623 15.12 357.043 16.82 355.883 18.06C354.763 19.3 353.043 20.44 350.723 21.48ZM335.183 17.94C337.503 17.94 339.423 17.54 340.943 16.74C342.503 15.94 343.283 14.88 343.283 13.56C343.283 12.24 342.503 11.2 340.943 10.44C339.383 9.64 337.463 9.24 335.183 9.24C332.863 9.24 330.923 9.64 329.363 10.44C327.803 11.2 327.023 12.24 327.023 13.56C327.023 14.92 327.803 16 329.363 16.8C330.923 17.56 332.863 17.94 335.183 17.94ZM335.183 34.74C337.503 34.74 339.423 34.34 340.943 33.54C342.503 32.74 343.283 31.68 343.283 30.36C343.283 29.04 342.503 28 340.943 27.24C339.383 26.44 337.463 26.04 335.183 26.04C332.863 26.04 330.923 26.44 329.363 27.24C327.803 28 327.023 29.04 327.023 30.36C327.023 31.72 327.803 32.8 329.363 33.6C330.923 34.36 332.863 34.74 335.183 34.74ZM387.801 33.9C391.401 33.82 394.061 33.74 395.781 33.66V45H364.041V33.66C368.361 33.82 371.621 33.9 373.821 33.9V13.2C372.381 16.36 369.441 18.4 365.001 19.32C364.881 14.6 364.441 10.3 363.681 6.42C366.881 5.98 369.101 5.44 370.341 4.8C371.621 4.12 372.601 3.38 373.281 2.58C374.001 1.78 374.481 1.24 374.721 0.959998V0.839996H387.801V33.9ZM421.106 45.6C412.506 45.6 406.166 43.62 402.086 39.66C398.006 35.7 395.966 30.2 395.966 23.16C395.966 16.16 398.006 10.7 402.086 6.78C406.206 2.82 412.546 0.839996 421.106 0.839996C429.666 0.839996 435.986 2.82 440.066 6.78C444.146 10.7 446.186 16.16 446.186 23.16C446.186 30.2 444.146 35.7 440.066 39.66C435.986 43.62 429.666 45.6 421.106 45.6ZM421.166 35.1C424.846 35.1 427.526 33.98 429.206 31.74C430.886 29.46 431.726 26.6 431.726 23.16C431.726 19.76 430.886 16.94 429.206 14.7C427.526 12.42 424.846 11.28 421.166 11.28C417.366 11.28 414.606 12.42 412.886 14.7C411.206 16.94 410.366 19.76 410.366 23.16C410.366 26.56 411.206 29.4 412.886 31.68C414.606 33.96 417.366 35.1 421.166 35.1Z" fill="#DEDDE7"/>
</svg>
