<svg width="342" height="351" viewBox="0 0 342 351" fill="none" xmlns="http://www.w3.org/2000/svg">
<g opacity="0.05">
<path d="M185.781 99.8346L153.969 77.4851C153.969 77.4851 128.028 60.5758 106.676 57.094C85.325 53.6121 48.154 63.5526 31.7421 97.0369C15.2411 125.598 12.103 149.5 21.983 180.173C31.863 210.847 82.9382 303.483 125.802 324.638C148.468 288.18 163.437 259.826 177.411 253.791C183.598 251.764 187.142 251.315 193.776 253.331C196.693 253.938 235.2 281.768 256.6 293.665C281.721 272.305 312.567 144.945 309.325 102.454C306.512 65.5816 267.254 19.0691 215.869 31.2371C190.844 39.7241 177.546 53.0917 156.247 74.9534" stroke="#5492EE" stroke-width="33"/>
<path d="M125.252 213.919C179.54 218.061 179.848 218.494 234.099 188.21M101.289 145.754L128.17 144.767M209.736 129.928L232.319 112.237" stroke="#5492EE" stroke-width="33"/>
</g>
</svg>
