<svg width="39" height="39" viewBox="0 0 39 39" fill="none" xmlns="http://www.w3.org/2000/svg">
<path d="M22.8084 10.1935L19.5977 6.4888C19.5977 6.4888 16.9514 3.63086 14.5522 2.57237C12.1529 1.51388 7.6367 1.65501 5.02573 5.32445C2.50882 8.38097 1.63854 11.252 2.13252 15.3449C2.6265 19.4377 6.57818 32.4219 11.0944 36.3031C14.4929 32.4485 16.828 29.3728 18.5745 29.0347C19.3341 28.9651 19.7541 29.0135 20.4797 29.4581C20.8048 29.6191 24.6749 34.1998 26.9013 36.3031C30.264 34.3923 36.5373 19.5083 37.0628 14.1452C37.5188 9.49136 33.9579 2.57237 27.7481 2.57237C24.6695 2.88989 22.8458 4.15678 19.9152 6.24182" stroke="#1A2F77" stroke-width="3"/>
<path d="M13.3525 22.6132C19.6063 24.7375 19.6329 24.8008 26.619 22.6132M12.0118 13.369L14.1288 15.486M25.2077 13.369L27.113 15.486" stroke="#1A2F77" stroke-width="3"/>
</svg>
