<svg width="85" height="95" viewBox="0 0 85 95" fill="none" xmlns="http://www.w3.org/2000/svg">
<path d="M76.4189 33.7429L73.9468 33.3709L74.0834 32.4628L74.7754 31.8591L76.4189 33.7429ZM48.5166 6.05884L49.4817 8.36504L48.5597 8.75088L47.6258 8.39476L48.5166 6.05884ZM18.0048 33.7429L20.0808 32.3501L20.321 32.7081L20.4274 33.1258L18.0048 33.7429ZM48.5166 44.7764V42.2764H50.4883L50.9477 44.1939L48.5166 44.7764ZM45.8067 44.7764L43.387 44.1478L43.8732 42.2764H45.8067V44.7764ZM8.77087 53.202L6.78093 51.6886L6.9147 51.5127L7.07726 51.363L8.77087 53.202ZM60.5609 63.433L58.1894 62.6421L60.5609 63.433ZM57.7506 18.8978L55.4826 17.8461L56.1542 16.3978H57.7506V18.8978ZM42.2006 27.1228L44.5436 27.995L42.2006 27.1228ZM37.4762 17.6941V15.1941H39.0198L39.7113 16.5742L37.4762 17.6941ZM37.9014 36.2643L40.1379 37.3815L37.9014 36.2643ZM26.235 46.251L26.3749 43.7549L26.235 46.251ZM25.0305 62.43L22.702 63.3398L22.2789 62.2569L22.8343 61.2356L25.0305 62.43ZM18.0048 80.2842L16.0553 81.8493L15.5686 81.243L15.5115 80.4676L18.0048 80.2842ZM13.1871 49.8163L11.8637 47.6953L13.1871 49.8163ZM39.0629 51.3965L40.6128 49.4349V49.4349L39.0629 51.3965ZM63.3338 75.8428C64.3927 76.0885 65.1012 76.0189 65.5961 75.8466C66.0825 75.6773 66.5769 75.3344 67.0876 74.661C68.1976 73.1974 69.0994 70.5657 69.8457 66.5384C70.5767 62.5933 71.094 57.7237 71.6868 52.0639C72.2757 46.4415 72.9334 40.1053 73.9468 33.3709L78.8911 34.1149C77.8971 40.721 77.25 46.948 76.6596 52.5848C76.0731 58.1842 75.5365 63.2698 74.762 67.4494C74.0027 71.5467 72.9473 75.2091 71.0714 77.6825C70.0892 78.9775 68.8333 80.0139 67.2402 80.5686C65.6556 81.1203 63.9553 81.1198 62.2039 80.7134L63.3338 75.8428ZM74.7754 31.8591C80.0747 27.2357 81.0952 18.3463 77.1381 12.0539C75.2171 8.99911 72.1132 6.56422 67.6768 5.6062C63.2016 4.6398 57.1842 5.14167 49.4817 8.36504L47.5515 3.75263C55.9079 0.25559 62.9887 -0.521428 68.7322 0.718858C74.5146 1.96754 78.7501 5.22492 81.3707 9.3921C86.4969 17.5435 85.4097 29.2166 78.0625 35.6267L74.7754 31.8591ZM47.6258 8.39476C32.8575 2.76304 23.5899 5.51772 19.2745 10.5457C14.9116 15.6292 14.5957 24.174 20.0808 32.3501L15.9287 35.1357C9.57038 25.6581 9.25449 14.5433 15.4803 7.28929C21.7538 -0.020189 33.6638 -2.28072 49.4073 3.72292L47.6258 8.39476ZM20.4274 33.1258L23.2377 44.1593L18.3924 45.3934L15.5821 34.36L20.4274 33.1258ZM62.2039 80.7134C59.5254 80.092 57.5085 78.0483 55.9759 75.7428C54.4108 73.3882 53.0877 70.3647 51.9307 67.0901C49.6173 60.5429 47.775 52.4106 46.0854 45.3589L50.9477 44.1939C52.6708 51.3853 54.4419 59.189 56.645 65.4244C57.7463 68.5411 58.9073 71.1206 60.1399 72.9749C61.4051 74.8782 62.4995 75.6492 63.3338 75.8428L62.2039 80.7134ZM48.5166 47.2764H45.8067V42.2764H48.5166V47.2764ZM48.2264 45.4049L45.5165 55.8366L40.6772 54.5795L43.387 44.1478L48.2264 45.4049ZM45.1691 53.8096C51.4832 63.1659 51.586 73.2448 47.3222 81.0333C43.0797 88.7829 34.6445 94.0183 24.4283 94.0183V89.0183C32.8807 89.0183 39.6011 84.7247 42.9364 78.6323C46.2504 72.5788 46.3532 64.5025 41.0246 56.6065L45.1691 53.8096ZM24.4283 94.0183C16.3264 94.0183 7.80778 88.9029 3.36325 81.1231C-1.2013 73.1331 -1.42041 62.473 6.78093 51.6886L10.7608 54.7153C3.70617 63.9918 4.18964 72.4899 7.70473 78.6429C11.3399 85.0059 18.2779 89.0183 24.4283 89.0183V94.0183ZM60.3249 78.8045C60.1226 77.8654 59.7872 76.9354 59.3673 75.8609C58.9665 74.8349 58.4628 73.6173 58.0746 72.3442C57.2537 69.6525 56.8871 66.5467 58.1894 62.6421L62.9325 64.224C62.0269 66.9394 62.2695 68.9587 62.8571 70.8858C63.1732 71.9221 63.5736 72.8873 64.0245 74.0412C64.4563 75.1465 64.9203 76.3934 65.2128 77.7518L60.3249 78.8045ZM51.955 28.647C49.5402 25.5076 48.814 22.0565 48.428 13.392L53.4231 13.1695C53.8108 21.874 54.561 23.8341 55.9182 25.5985L51.955 28.647ZM51.6686 26.0711L55.4826 17.8461L60.0186 19.9495L56.2046 28.1745L51.6686 26.0711ZM57.7506 16.3978H65.3786V21.3978H57.7506V16.3978ZM58.1894 62.6421C59.0189 60.1549 59.6626 57.8159 59.6272 54.5876C59.5912 51.3121 58.8512 46.97 56.6545 40.5731L61.3835 38.9492C63.6852 45.652 64.5831 50.5467 64.6269 54.5327C64.6712 58.5659 63.8367 61.513 62.9325 64.224L58.1894 62.6421ZM59.019 37.2611H66.9845V42.2611H59.019V37.2611ZM56.6545 40.5731C56.2833 39.4922 55.871 38.354 55.4141 37.1536L60.0871 35.375C60.562 36.6226 60.9931 37.8126 61.3835 38.9492L56.6545 40.5731ZM55.4141 37.1536C54.3942 34.474 53.1537 31.4886 51.6553 28.1452L56.218 26.1003C57.7488 29.516 59.0275 32.5911 60.0871 35.375L55.4141 37.1536ZM55.5591 35.0612L60.5773 25.9197L64.9604 28.3258L59.9421 37.4673L55.5591 35.0612ZM47.002 13.2736C47.0195 19.4462 46.0241 24.018 44.5436 27.995L39.8577 26.2506C41.1297 22.8338 42.0179 18.8576 42.002 13.2879L47.002 13.2736ZM39.9655 28.2427L35.2411 18.8141L39.7113 16.5742L44.4357 26.0028L39.9655 28.2427ZM37.4762 20.1941H29.6475V15.1941H37.4762V20.1941ZM44.5436 27.995C43.2673 31.4233 41.6125 34.4297 40.1379 37.3815L35.665 35.147C37.2529 31.9686 38.7045 29.3483 39.8577 26.2506L44.5436 27.995ZM35.7196 37.4847L31.2796 29.5468L35.6434 27.106L40.0833 35.0439L35.7196 37.4847ZM40.1379 37.3815C39.5882 38.4819 39.0512 39.5957 38.5377 40.7658L33.9592 38.7565C34.5183 37.4823 35.0951 36.2878 35.665 35.147L40.1379 37.3815ZM38.5377 40.7658C37.5338 43.0532 36.6134 45.5705 35.8928 48.5807L31.0302 47.4167C31.832 44.067 32.8582 41.2652 33.9592 38.7565L38.5377 40.7658ZM28.4304 37.4531L36.1868 37.2619L36.31 42.2604L28.5536 42.4515L28.4304 37.4531ZM26.3749 43.7549C29.0997 43.9077 31.8157 44.5534 34.461 45.7072L32.462 50.2902C30.3461 49.3673 28.2111 48.8657 26.0951 48.7471L26.3749 43.7549ZM28.2746 47.6966C27.4829 48.8137 27.4384 49.4249 27.4669 49.8014C27.5118 50.3932 27.7479 50.9051 28.2573 52.1875C28.7195 53.3511 29.268 54.8953 29.2429 56.877C29.2177 58.8601 28.6264 61.0508 27.2268 63.6243L22.8343 61.2356C23.9439 59.1952 24.2308 57.8 24.2433 56.8137C24.2558 55.8261 24.0014 55.0175 23.6104 54.0334C23.2667 53.168 22.5994 51.7372 22.4813 50.1797C22.3467 48.4069 22.8793 46.6623 24.1953 44.8054L28.2746 47.6966ZM27.3591 61.5201C28.3457 64.0452 28.8843 65.7307 28.9175 67.0478C28.9577 68.6401 28.1395 69.8395 28.0557 70.0167C27.7645 70.6326 26.8935 72.7464 28.7015 83.6882L23.7684 84.5033C21.9632 73.5788 22.5139 70.0395 23.5358 67.879C24.1085 66.668 23.9198 67.1985 23.9191 67.1738C23.9116 66.8739 23.7393 65.9946 22.702 63.3398L27.3591 61.5201ZM26.8175 86.5269C24.4381 87.0971 22.3691 87.0236 20.4375 85.9865C18.6973 85.0522 17.3452 83.4559 16.0553 81.8493L19.9542 78.7191C21.3112 80.4093 22.0844 81.1956 22.8027 81.5813C23.3296 81.8642 24.0523 82.048 25.6524 81.6646L26.8175 86.5269ZM7.07726 51.363C8.6004 49.9602 10.2009 48.7328 11.8637 47.6953L14.5105 51.9373C13.1275 52.8002 11.7732 53.8356 10.4645 55.0409L7.07726 51.363ZM11.8637 47.6953C16.3698 44.8838 21.3294 43.4721 26.3749 43.7549L26.0951 48.7471C22.1964 48.5286 18.2469 49.606 14.5105 51.9373L11.8637 47.6953ZM15.5115 80.4676C14.5627 67.5732 13.5369 61.0406 10.7683 50.4485L15.6058 49.1841C18.4642 60.1198 19.531 66.9591 20.498 80.1007L15.5115 80.4676ZM34.461 45.7072C36.5753 46.6294 38.6345 47.8718 40.6128 49.4349L37.5129 53.358C35.8487 52.043 34.1565 51.0293 32.462 50.2902L34.461 45.7072ZM40.6128 49.4349C42.1109 50.6186 43.5619 51.9857 44.9561 53.5368L41.2376 56.8793C40.0197 55.5245 38.774 54.3544 37.5129 53.358L40.6128 49.4349ZM25.9697 81.6099C26.85 81.5159 27.6734 81.2043 28.5105 80.4705C29.3902 79.6994 30.3724 78.3825 31.3658 76.1424C33.3716 71.6192 35.1763 63.9107 36.5777 51.1241L41.548 51.6688C40.135 64.5602 38.2693 72.9086 35.9366 78.1692C34.7607 80.821 33.4066 82.8278 31.8064 84.2304C30.1636 85.6705 28.3635 86.3828 26.5002 86.5816L25.9697 81.6099Z" fill="#1A2F77"/>
</svg>
