<svg width="62" height="97" viewBox="0 0 62 97" fill="none" xmlns="http://www.w3.org/2000/svg">
<path d="M26.103 62.5673H23.485V56.3781H38.3202V62.5673H35.7022M26.103 62.5673H35.7022M26.103 62.5673V68.2981M35.7022 62.5673V71.0489M26.103 68.2981L35.7022 71.0489M26.103 68.2981V74.9459M35.7022 71.0489V77.8113M26.103 74.9459V84.5736L30.6844 92.1383L35.7022 84.5736V77.8113M26.103 74.9459L35.7022 77.8113M17.5946 11.2194C24.794 16.7209 36.793 16.7209 43.7743 11.2194" stroke="#1A2F77" stroke-width="5"/>
<path d="M22.3843 38.4255H12.4066C12.4066 38.4255 6.51069 31.1761 3.10923 23.2471C-0.292219 15.3182 11.9531 0.366181 17.1687 4.4441C22.3842 8.52202 36.8972 9.42817 43.2466 4.4441C49.5961 -0.539967 61.161 11.4671 58.4399 23.2471L48.2354 38.4255H39.6184M22.3843 38.4255L20.7969 45.2219H25.7857M22.3843 38.4255H39.6184M39.6184 38.4255L40.979 45.2219H35.9901M25.7857 45.2219V50.8855H35.9901V45.2219M25.7857 45.2219H35.9901" stroke="#1A2F77" stroke-width="5"/>
</svg>
