<svg width="89" height="101" viewBox="0 0 89 101" fill="none" xmlns="http://www.w3.org/2000/svg">
<path d="M54.4067 32.4429L52.7509 34.3159L53.8623 35.2984L55.2572 34.7938L54.4067 32.4429ZM24.4748 42.9807L22.0263 42.4756L22.0163 42.524L22.0083 42.5727L24.4748 42.9807ZM32.1403 66.0898L34.6326 65.8937L34.578 65.2011L34.174 64.6359L32.1403 66.0898ZM41.4483 97.5182V100.018H41.6408L41.831 99.9887L41.4483 97.5182ZM46.3761 92.5266L48.8674 92.7351L48.8813 92.5695L48.8731 92.4034L46.3761 92.5266ZM62.4372 73.2998L60.1479 74.3043L60.1576 74.3266L60.1678 74.3487L62.4372 73.2998ZM62.4372 93.451H59.9372V93.8649L60.0706 94.2567L62.4372 93.451ZM73.5704 92.5266L75.993 93.1439L76.003 93.1046L76.0117 93.065L73.5704 92.5266ZM75.7605 71.0814L73.3808 70.3154L73.2739 70.6473L73.262 70.9959L75.7605 71.0814ZM80.5058 60.1739L78.5225 58.6519L78.4964 58.6859L78.4715 58.7208L80.5058 60.1739ZM56.9618 31.5185L57.8123 33.8694L58.0014 33.801L58.1772 33.7033L56.9618 31.5185ZM56.0625 30.5698C50.1967 25.3844 42.3231 24.9587 35.7639 27.3957C29.2298 29.8234 23.5139 35.2644 22.0263 42.4756L26.9232 43.4857C27.9908 38.3105 32.2218 34.0457 37.5053 32.0826C42.7638 30.1289 48.5786 30.6275 52.7509 34.3159L56.0625 30.5698ZM22.0083 42.5727C21.3775 46.3862 21.3588 49.8922 22.607 53.908C23.8284 57.8374 26.2161 62.1018 30.1065 67.5437L34.174 64.6359C30.3989 59.3552 28.3691 55.6006 27.3817 52.4239C26.4211 49.3336 26.4024 46.6463 26.9412 43.3886L22.0083 42.5727ZM29.648 66.2859C30.6449 78.9555 31.4776 87.0939 32.8833 92.053C33.5899 94.5457 34.5321 96.5929 36.0087 98.0031C37.5935 99.5168 39.49 100.018 41.4483 100.018V95.0182C40.3952 95.0182 39.8734 94.7802 39.462 94.3873C38.9424 93.891 38.3104 92.8647 37.6938 90.6894C36.4531 86.3123 35.6432 78.7366 34.6326 65.8937L29.648 66.2859ZM41.831 99.9887C43.537 99.7245 45.3872 99.2979 46.768 97.9936C48.2216 96.6206 48.7001 94.7346 48.8674 92.7351L43.8849 92.3182C43.7514 93.9125 43.4352 94.2638 43.3346 94.3588C43.1613 94.5226 42.6979 94.7948 41.0656 95.0477L41.831 99.9887ZM46.3761 92.5266C48.8731 92.4034 48.8731 92.4034 48.8731 92.4034C48.8731 92.4033 48.8731 92.4032 48.8731 92.403C48.8731 92.4027 48.873 92.4021 48.873 92.4013C48.8729 92.3997 48.8728 92.3973 48.8726 92.3939C48.8723 92.3872 48.8718 92.377 48.8712 92.3634C48.8698 92.3362 48.8679 92.2953 48.8653 92.2415C48.8603 92.1339 48.8529 91.9749 48.8437 91.7704C48.8253 91.3614 48.7999 90.7712 48.7716 90.0485C48.7149 88.6024 48.647 86.6305 48.6018 84.5235C48.5089 80.193 48.5237 75.6464 48.843 73.7057L43.9093 72.894C43.4986 75.3902 43.5134 80.4571 43.603 84.6307C43.649 86.7758 43.718 88.7786 43.7754 90.2443C43.8041 90.9775 43.83 91.5774 43.8487 91.9945C43.8581 92.2032 43.8657 92.3662 43.8709 92.4774C43.8735 92.5331 43.8756 92.5758 43.877 92.6048C43.8777 92.6193 43.8782 92.6303 43.8786 92.6379C43.8788 92.6417 43.8789 92.6446 43.879 92.6466C43.8791 92.6476 43.8791 92.6484 43.8791 92.6489C43.8792 92.6492 43.8792 92.6494 43.8792 92.6496C43.8792 92.6498 43.8792 92.6499 46.3761 92.5266ZM48.843 73.7057C48.9077 73.3122 49.2967 72.4852 50.2249 71.5757C51.1094 70.7088 52.2527 70.001 53.4255 69.6793C54.5632 69.3671 55.672 69.4258 56.7059 69.9724C57.7608 70.5302 59.0274 71.7507 60.1479 74.3043L64.7265 72.2954C63.2918 69.0255 61.3644 66.7796 59.0429 65.5522C56.7003 64.3137 54.2501 64.2683 52.1027 64.8574C49.9902 65.437 48.1221 66.6357 46.7252 68.0046C45.3719 69.3309 44.2096 71.069 43.9093 72.894L48.843 73.7057ZM60.1678 74.3487C60.0978 74.1971 60.1242 74.1778 60.1618 74.4581C60.1941 74.6993 60.2206 75.0486 60.2359 75.5328C60.2664 76.5026 60.2466 77.8153 60.2024 79.5149C60.115 82.8769 59.9372 87.5848 59.9372 93.451H64.9372C64.9372 87.6702 65.1118 83.0653 65.2007 79.6448C65.2447 77.9532 65.269 76.5072 65.2334 75.3756C65.2156 74.809 65.1815 74.2718 65.1174 73.7939C65.0586 73.3551 64.9529 72.784 64.7065 72.251L60.1678 74.3487ZM60.0706 94.2567C61.4038 98.173 64.9947 99.9012 68.3349 99.6409C71.6681 99.3812 74.9729 97.1478 75.993 93.1439L71.1478 91.9094C70.7078 93.6366 69.3585 94.546 67.9465 94.656C66.5413 94.7655 65.2957 94.0903 64.8038 92.6454L60.0706 94.2567ZM76.0117 93.065C77.359 86.9558 77.8792 82.2713 78.2591 71.1668L73.262 70.9959C72.8869 81.9596 72.3828 86.3029 71.1291 91.9883L76.0117 93.065ZM78.1403 71.8474C79.8662 66.4854 80.7667 64.1099 82.5402 61.6269L78.4715 58.7208C76.1921 61.9121 75.0963 64.9857 73.3808 70.3154L78.1403 71.8474ZM82.4892 61.6958C83.6538 60.1782 84.8779 58.837 85.8246 56.9903C86.803 55.0815 87.5148 52.6527 88.2575 48.6087L83.3398 47.7055C82.6225 51.6112 82.0146 53.4619 81.3751 54.7095C80.7037 56.0193 80.0114 56.7117 78.5225 58.6519L82.4892 61.6958ZM88.2575 48.6087C88.7154 46.1161 88.4055 42.8873 87.4288 39.7242C86.442 36.5279 84.7027 33.162 82.0654 30.4642C79.4003 27.7378 75.8213 25.7051 71.2975 25.2855C66.8042 24.8687 61.6234 26.0646 55.7465 29.3338L58.1772 33.7033C63.4335 30.7792 67.6063 29.9646 70.8356 30.2641C74.0343 30.5608 76.5467 31.9714 78.49 33.9593C80.4611 35.9758 81.8474 38.5951 82.6514 41.1993C83.4657 43.8366 83.612 46.2233 83.3398 47.7055L88.2575 48.6087ZM56.1114 29.1676L53.5562 30.092L55.2572 34.7938L57.8123 33.8694L56.1114 29.1676ZM50.9722 60.8328C53.8069 60.4074 56.6743 59.2263 58.7395 58.226C59.7929 57.7157 60.6821 57.2305 61.3108 56.8711C61.6257 56.6911 61.8769 56.5417 62.0525 56.4354C62.1403 56.3822 62.2094 56.3397 62.2581 56.3095C62.2825 56.2943 62.3018 56.2822 62.3159 56.2734C62.323 56.269 62.3287 56.2654 62.3331 56.2626C62.3353 56.2612 62.3372 56.26 62.3387 56.2591C62.3395 56.2586 62.3401 56.2581 62.3407 56.2578C62.341 56.2576 62.3414 56.2573 62.3416 56.2572C62.3419 56.257 62.3423 56.2568 61.0023 54.1462C59.6624 52.0356 59.6627 52.0354 59.663 52.0352C59.6631 52.0352 59.6633 52.035 59.6635 52.0349C59.6637 52.0348 59.6639 52.0347 59.664 52.0346C59.6642 52.0345 59.6641 52.0346 59.6636 52.0348C59.6627 52.0354 59.6605 52.0368 59.6571 52.039C59.6501 52.0433 59.6381 52.0508 59.6212 52.0613C59.5874 52.0823 59.534 52.1152 59.4626 52.1585C59.3196 52.2451 59.1047 52.3729 58.8295 52.5302C58.2779 52.8456 57.4907 53.2752 56.5599 53.7261C54.6565 54.648 52.3233 55.5741 50.2302 55.8882L50.9722 60.8328ZM40.9008 48.6234H46.9608V43.6234H40.9008V48.6234ZM62.0722 48.6234H67.7631V43.6234H62.0722V48.6234Z" fill="#1A2F77"/>
<path d="M27.7091 26.0356L27.7091 28.5356L27.7091 26.0356ZM19.9399 23.2538L21.6169 21.3997L19.9399 23.2538ZM27.7091 5.61304C30.8734 5.61304 33.0464 6.76888 34.4513 8.3533C35.8974 9.98419 36.6681 12.2312 36.6589 14.5645C36.6497 16.8979 35.8607 19.1533 34.4029 20.7926C32.9859 22.386 30.8194 23.5356 27.7091 23.5356L27.7091 28.5356C32.1868 28.5356 35.7339 26.8199 38.1391 24.1153C40.5036 21.4566 41.6455 17.9814 41.6589 14.5842C41.6722 11.1868 40.5573 7.70317 38.1924 5.03609C35.7863 2.32251 32.2231 0.613037 27.7091 0.613037V5.61304ZM27.7091 23.5356C24.9898 23.5357 23.0064 22.6565 21.6169 21.3997L18.2629 25.1078C20.6264 27.2456 23.8262 28.5357 27.7091 28.5356L27.7091 23.5356ZM21.6169 21.3997C19.0545 19.082 18.1353 15.093 19.1812 11.6134C20.1723 8.31596 22.888 5.61304 27.7091 5.61304V0.613037C20.5138 0.613037 15.9698 4.92761 14.3928 10.1741C12.8706 15.2385 14.075 21.3198 18.2629 25.1078L21.6169 21.3997ZM3.55041 41.4594L21.6175 25.1073L18.2623 21.4002L0.195199 37.7523L3.55041 41.4594Z" fill="#1A2F77"/>
</svg>
