<svg width="84" height="84" viewBox="0 0 84 84" fill="none" xmlns="http://www.w3.org/2000/svg">
<path d="M15.3825 32.2967C11.6032 32.8248 9.61399 32.2657 6.19686 30.4201L5.25955 21.2252M15.3825 32.2967C20.0201 35.2268 22.6508 35.5322 27.38 34.3608M15.3825 32.2967L15.5699 21.6004M27.38 34.3608C32.5248 35.8274 35.2715 37.0604 41.8145 34.3608M27.38 34.3608V22.1633M41.8145 34.3608C46.8931 36.4767 49.806 37.1361 55.4992 34.3608M41.8145 34.3608V24.2275M55.4992 34.3608C60.4812 35.8044 63.1443 35.3031 67.6842 32.2967M55.4992 34.3608L56.0616 22.1633M67.6842 32.2967C71.3817 32.7264 73.4651 32.616 77.2447 30.4201L78.7444 21.2252M67.6842 32.2967V21.2252M78.7444 21.2252C76.6156 18.206 74.6341 17.5999 67.6842 21.2252M78.7444 21.2252C82.1187 15.0325 80.8065 5.64986 74.9952 3.96098C66.7469 2.08445 65.8096 2.08433 41.2521 6.77567C16.5072 2.64731 16.6429 2.68264 10.5085 3.96098C2.07272 6.21281 1.81701 14.5082 5.25955 21.2252M67.6842 21.2252C65.797 17.1388 60.7481 16.9091 56.0616 22.1633M56.0616 22.1633C52.7515 15.1133 44.8139 17.2844 41.8145 24.2275M41.8145 24.2275C38.505 18.2203 32.0665 14.6573 27.38 22.1633M27.38 22.1633C23.3397 17.0686 17.8195 16.1584 15.5699 21.6004M15.5699 21.6004C11.4649 16.6841 7.32163 16.7213 5.25955 21.2252M19.1317 52C17.0696 49.3729 12.6979 49.2824 9.57117 52C9.64144 53.3185 9.72361 54.5026 9.81936 55.5654M19.1317 52C21.9561 50.3364 27.38 50.3111 30.1919 52.3753M19.1317 52C20.1619 63.6609 20.069 66.0739 25.1305 66.0739C30.1919 65.511 30.3103 59.7229 30.1919 52.3753M19.1317 52C19.3679 59.5885 18.7568 64.4797 14.8201 64.5727C11.9656 64.6401 10.5242 63.3889 9.81936 55.5654M30.1919 52.3753C34.6555 50.7684 37.8778 50.8741 41.8145 52.5629M30.1919 52.3753C30.0452 63.0435 31.8791 66.8245 36.1907 67.1998C42.1894 66.4492 42.0835 60.9459 41.8145 52.5629M41.8145 52.5629C45.3156 51.1193 49.1255 50.8741 53.4371 52.3753M41.8145 52.5629C41.8031 66.1213 43.6475 67.1464 47.4384 67.1998C51.9242 66.921 52.9927 63.0463 53.4371 52.3753M53.4371 52.3753C56.4365 50.8741 61.123 50.4988 64.3099 51.6247M53.4371 52.3753C52.4576 61.8908 54.7494 66.0739 59.061 66.0739C63.3726 66.0739 64.5512 59.541 64.3099 51.6247M64.3099 51.6247C68.1016 49.8202 71.4334 49.7482 73.8704 51.0617C74.0454 52.6223 74.0898 54.1418 74.0109 55.5654M64.3099 51.6247C64.6683 60.734 65.3797 64.5723 69.3713 64.5727C72.1116 63.9952 73.7476 60.3139 74.0109 55.5654M9.81936 55.5654C4.60322 59.9156 -1.48906 74.8936 8.07148 79.7725C12.7669 81.924 38.4402 78.8343 41.8145 78.8343C56.9989 79.9602 62.9986 79.4446 74.2453 79.7725C84.6529 76.3838 81.1814 61.3826 74.0109 55.5654" stroke="#1A2F77" stroke-width="5"/>
</svg>
