<svg width="70" height="86" viewBox="0 0 70 86" fill="none" xmlns="http://www.w3.org/2000/svg">
<path d="M22.0453 40.8847C31.8885 39.8379 37.5223 39.787 47.8283 40.8847M22.0453 32.9515H47.8283M22.0453 25.0183C31.4751 25.9778 37.0712 25.9772 47.8283 25.0183M16.9328 82.5342C21.3755 84.3036 24.9767 62.5897 35.5318 53.1812C42.5676 60.6312 49.263 87.8532 54.0418 82.5342C62.8129 72.5566 61.6217 62.4088 58.1842 43.331C65.0417 30.3902 70.9565 16.5076 63.1896 7.05084C57.5259 1.92211 44.894 1.37658 35.0558 8.94223C25.5626 1.03271 11.4096 1.54856 4.85078 8.94223C2.2616 13.9285 2.42209 27.7372 11.4096 43.331C7.42201 65.1378 6.67204 75.7921 16.9328 82.5342Z" stroke="#1A2F77" stroke-width="5"/>
</svg>
