<svg width="82" height="81" viewBox="0 0 82 81" fill="none" xmlns="http://www.w3.org/2000/svg">
<path d="M32.2611 40.6953C24.8722 40.6953 23.6457 81.624 15.3276 77.1543C5.74038 70.8841 6.44112 60.9756 10.167 40.6953C1.76938 26.1931 1.61943 13.3509 4.03865 8.71374C10.167 1.83763 23.391 1.3579 32.2611 8.71374C41.4535 1.67769 53.2563 2.18503 58.5482 6.95475C65.8053 15.7496 60.2787 28.6603 53.8714 40.6953C57.0833 58.4377 58.1963 67.8751 50.0009 77.1543C44.4081 83.1234 39.65 40.6953 32.2611 40.6953Z" stroke="#1A2F77" stroke-width="5"/>
<path d="M67.5793 35.738C71.9046 31.9614 73.0602 29.4942 73.7076 24.7044C75.8495 33.6211 77.5149 35.037 81.2241 35.738C75.0958 37.5955 75.6428 40.4738 73.7076 46.8701C73.2869 41.7531 72.0317 37.7554 67.5793 35.738Z" stroke="#1A2F77" stroke-width="5"/>
</svg>
