<svg width="92" height="89" viewBox="0 0 92 89" fill="none" xmlns="http://www.w3.org/2000/svg">
<path d="M40.3751 15.6693L37.5178 24.7175L31.5651 24.1632L29.9578 24.0135M40.3751 15.6693L81.6401 19.1219C84.7835 16.7755 86.0007 15.2394 87.4737 12.2167L5.92171 3.16846C4.70582 7.42762 4.94592 9.26484 5.92171 12.2167M40.3751 15.6693L29.9578 14.6254M5.92171 12.2167L8.11142 21.9792L13.8983 22.5181L18.8513 22.9793M5.92171 12.2167L18.8513 13.5124M29.9578 24.0135L25.6124 23.6089L19.851 23.0724L18.8513 22.9793M29.9578 24.0135V14.6254M29.9578 14.6254L18.8513 13.5124M18.8513 22.9793V13.5124M11.9211 85.674C16.868 88.054 18.058 58.5293 24.4218 58.5293C29.1818 58.5293 31.9411 89.6406 37.5178 85.674C43.5678 78.7654 42.7461 71.739 40.3751 58.5293C45.1051 49.569 49.185 39.9566 43.8276 33.4086C39.921 29.8574 31.2079 29.4797 24.4218 34.7182C17.8737 29.2416 8.11142 29.5988 3.58736 34.7182C1.80143 38.1708 1.91213 47.7321 8.11142 58.5293C5.36092 73.6286 4.84361 81.0058 11.9211 85.674Z" stroke="#1A2F77" stroke-width="5"/>
</svg>
