<svg width="78" height="82" viewBox="0 0 78 82" fill="none" xmlns="http://www.w3.org/2000/svg">
<path d="M12.5323 8.27931L14.2807 10.0662L14.2989 10.0484L14.3168 10.0302L12.5323 8.27931ZM40.2731 5.72763L39.8208 8.18637L40.4068 8.29418L40.9785 8.12606L40.2731 5.72763ZM64.4038 5.72763L66.0164 3.81728L65.8286 3.65872L65.6135 3.53979L64.4038 5.72763ZM70.484 26.1411L72.425 27.7168L72.8481 27.1955L72.9532 26.5325L70.484 26.1411ZM40.2731 48.3772L39.6488 50.798L39.9559 50.8772H40.2731V48.3772ZM16.5224 26.1411V23.6411H14.0224V26.1411H16.5224ZM16.5224 38.535H14.0224V41.035H16.5224V38.535ZM36.093 38.535V41.035H38.593V38.535H36.093ZM36.093 26.1411H38.593V23.6411H36.093V26.1411ZM42.7432 26.1411V23.6411H40.2432V26.1411H42.7432ZM42.7432 38.535H40.2432V41.035H42.7432V38.535ZM61.9338 38.535V41.035H64.4338V38.535H61.9338ZM61.9338 26.1411H64.4338V23.6411H61.9338V26.1411ZM14.3168 10.0302C16.831 7.46773 19.6525 6.382 23.5839 6.22067C27.6922 6.05208 32.8171 6.89795 39.8208 8.18637L40.7254 3.26889C33.8587 2.00567 28.1533 1.02894 23.3788 1.22488C18.4274 1.42807 14.3137 2.89401 10.7478 6.52843L14.3168 10.0302ZM40.9785 8.12606C46.9668 6.36492 51.0464 5.52982 54.3659 5.51307C57.567 5.49693 60.1691 6.24288 63.1941 7.91547L65.6135 3.53979C61.9579 1.51854 58.5215 0.492048 54.3407 0.513136C50.2785 0.533628 45.633 1.54544 39.5677 3.3292L40.9785 8.12606ZM62.7912 7.63798C64.96 9.46877 66.5921 11.4063 67.5449 14.049C68.5085 16.7214 68.8677 20.3683 68.0148 25.7498L72.9532 26.5325C73.891 20.6153 73.5852 16.0603 72.2485 12.3531C70.9011 8.61619 68.5978 5.99632 66.0164 3.81728L62.7912 7.63798ZM68.543 24.5655C67.4434 25.9202 66.5518 27.8347 65.7871 29.9132C65.0044 32.0405 64.278 34.5586 63.5874 37.2737C62.211 42.6859 60.913 49.1488 59.5947 55.2025C58.2597 61.3329 56.9059 67.0353 55.3969 71.1858C54.6376 73.2742 53.8971 74.8017 53.2006 75.7636C52.4594 76.7873 52.1466 76.6718 52.3179 76.6718V81.6718C54.5794 81.6718 56.1936 80.1556 57.2504 78.696C58.3521 77.1745 59.2808 75.1362 60.0959 72.8942C61.7357 68.384 63.1516 62.3677 64.4802 56.2664C65.8256 50.0884 67.0851 43.8066 68.4332 38.5061C69.1049 35.8649 69.7824 33.5346 70.4796 31.6396C71.1947 29.6958 71.8589 28.4141 72.425 27.7168L68.543 24.5655ZM52.3179 76.6718C52.1699 76.6718 51.9766 76.6511 51.6386 76.2463C51.2395 75.7682 50.8041 74.9224 50.3882 73.6067C49.5567 70.9759 49.0658 67.3691 48.5612 63.4549C48.0755 59.6867 47.5747 55.6077 46.6661 52.4895C46.2127 50.9335 45.5951 49.3805 44.6638 48.1734C43.6768 46.894 42.2201 45.8772 40.2731 45.8772V50.8772C40.2736 50.8772 40.3928 50.8228 40.705 51.2275C41.073 51.7045 41.4779 52.5573 41.8658 53.8883C42.6396 56.5441 43.0956 60.1637 43.6023 64.0941C44.0901 67.8786 44.6272 71.9704 45.6207 75.1136C46.1173 76.6849 46.7936 78.2449 47.8006 79.4509C48.8687 80.7302 50.3759 81.6718 52.3179 81.6718V76.6718ZM40.8974 45.9565C39.9959 45.724 39.0652 45.7568 38.1819 46.0959C37.3304 46.4227 36.671 46.9763 36.17 47.5577C35.211 48.6708 34.5726 50.1925 34.1017 51.6868C33.1433 54.7283 32.5314 58.851 31.9927 62.7664C31.437 66.8048 30.9545 70.6597 30.2793 73.5391C29.9385 74.9922 29.5934 75.9868 29.2731 76.5663C28.9002 77.2411 28.9735 76.6718 29.7082 76.6718V81.6718C31.8205 81.6718 33.0415 80.0846 33.6492 78.9849C34.3096 77.79 34.7783 76.2536 35.1472 74.6807C35.8912 71.5081 36.4118 67.3307 36.946 63.448C37.4972 59.4423 38.0621 55.7551 38.8706 53.1895C39.2831 51.8803 39.6757 51.149 39.958 50.8214C40.0777 50.6824 40.0915 50.7186 39.9738 50.7638C39.8242 50.8212 39.6878 50.8081 39.6488 50.798L40.8974 45.9565ZM29.7082 76.6718C29.9432 76.6718 29.5815 76.7835 28.6468 75.6001C27.8108 74.5416 26.8818 72.9024 25.8914 70.7322C23.9222 66.417 21.9417 60.5253 20.0515 54.3328C18.1554 48.1207 16.421 41.8496 14.8609 36.5857C14.0904 33.986 13.3659 31.6455 12.705 29.7641C12.0765 27.9749 11.4134 26.3199 10.7142 25.3017L6.59241 28.132C6.86297 28.5261 7.33717 29.5695 7.98759 31.4212C8.60564 33.1807 9.30155 35.4237 10.067 38.0065C11.5788 43.1075 13.3783 49.5971 15.2693 55.7925C17.1664 62.0076 19.2264 68.1706 21.3427 72.808C22.3951 75.1142 23.5199 77.1758 24.723 78.6991C25.8275 80.0974 27.49 81.6718 29.7082 81.6718V76.6718ZM10.7142 25.3017C9.40447 23.3944 9.32377 20.5282 10.2717 17.3259C11.207 14.1659 12.9532 11.3652 14.2807 10.0662L10.7838 6.49244C8.74148 8.49086 6.60869 12.0845 5.4773 15.9067C4.35844 19.6866 4.02318 24.3905 6.59241 28.132L10.7142 25.3017ZM24.8472 13.0744C30.2357 14.4194 34.623 15.157 39.1578 15.1723C43.6912 15.1876 48.2467 14.4809 53.9783 13.077L52.7888 8.22056C47.2706 9.57218 43.1497 10.1857 39.1747 10.1723C35.201 10.1589 31.2477 9.51864 26.0581 8.22321L24.8472 13.0744ZM16.5224 41.035H36.093V36.035H16.5224V41.035ZM36.093 23.6411H16.5224V28.6411H36.093V23.6411ZM42.7432 41.035H61.9338V36.035H42.7432V41.035ZM61.9338 23.6411H42.7432V28.6411H61.9338V23.6411ZM14.0224 26.1411V29.2396H19.0224V26.1411H14.0224ZM0.751953 31.7396H16.5224V26.7396H0.751953V31.7396ZM14.0224 29.2396V35.4366H19.0224V29.2396H14.0224ZM14.0224 35.4366V38.535H19.0224V35.4366H14.0224ZM0.751953 37.9366H16.5224V32.9366H0.751953V37.9366ZM64.4338 38.535V35.4366H59.4338V38.535H64.4338ZM61.9338 37.9366H77.7043V32.9366H61.9338V37.9366ZM64.4338 35.4366V30.7889H59.4338V35.4366H64.4338ZM64.4338 30.7889V29.2396H59.4338V30.7889H64.4338ZM64.4338 29.2396V26.1411H59.4338V29.2396H64.4338ZM61.9338 31.7396H77.7043V26.7396H61.9338V31.7396ZM38.593 38.535V28.465H33.593V38.535H38.593ZM38.593 28.465V26.1411H33.593V28.465H38.593ZM40.2432 26.1411V28.465H45.2432V26.1411H40.2432ZM40.2432 28.465V38.535H45.2432V28.465H40.2432ZM36.093 30.965H42.7432V25.965H36.093V30.965Z" fill="#1A2F77"/>
</svg>
