<svg width="738" height="769" viewBox="0 0 738 769" fill="none" xmlns="http://www.w3.org/2000/svg">
<path d="M343 755.5H406.5L295.5 701H456L295.5 657H456M198 547L119 626M119 371H86M69 371H45.5M30.5 371H0M198 194L119 115M373.5 115V83.5M373.5 64.5V49.5M373.5 36V0.5M548 194L628.5 115M624 371H644M656 371H688M707 371H738M548 547L628.5 626M245 348C258 268.5 316 233 373.5 239.5M277.5 617.5H468C477.5 456.5 544.5 490 548 371C548 123 193.5 124.5 198 371C199.871 473.5 272.5 483.5 277.5 617.5Z" stroke="#ECEBF2" stroke-width="27"/>
</svg>
